<svg xmlns="http://www.w3.org/2000/svg" width="192" height="32" viewBox="0 0 192 32" fill="none">
  <path fill-rule="evenodd" clip-rule="evenodd" d="M16 0C7.16344 0 0 7.16344 0 16C0 24.8366 7.16344 32 16 32C24.8366 32 32 24.8366 32 16C32 7.16344 24.8366 0 16 0ZM17.6676 16.7028V25.4077H14.066V16.7031H12.2666V13.7034H14.066V11.9024C14.066 9.4552 15.082 8 17.9687 8H20.372V11.0001H18.8698C17.7461 11.0001 17.6717 11.4193 17.6717 12.2017L17.6676 13.7031H20.389L20.0706 16.7028H17.6676Z" fill="white"/>
  <path fill-rule="evenodd" clip-rule="evenodd" d="M69.333 0C60.4965 0 53.333 7.16344 53.333 16C53.333 24.8366 60.4965 32 69.333 32C78.1696 32 85.333 24.8366 85.333 16C85.333 7.16344 78.1696 0 69.333 0ZM65.8153 7.51835C66.7256 7.47693 67.0164 7.4668 69.334 7.4668H69.3313C71.6495 7.4668 71.9393 7.47693 72.8496 7.51835C73.758 7.55995 74.3785 7.70378 74.9225 7.9148C75.4842 8.13258 75.9589 8.42414 76.4336 8.89881C76.9083 9.37313 77.1998 9.84922 77.4185 10.4105C77.6283 10.9531 77.7723 11.5732 77.8149 12.4816C77.8558 13.3918 77.8665 13.6827 77.8665 16.0002C77.8665 18.3178 77.8558 18.6079 77.8149 19.5181C77.7723 20.4262 77.6283 21.0465 77.4185 21.5893C77.1998 22.1503 76.9083 22.6264 76.4336 23.1007C75.9594 23.5754 75.4841 23.8677 74.923 24.0856C74.3801 24.2967 73.7593 24.4405 72.8508 24.4821C71.9406 24.5235 71.6506 24.5336 69.3329 24.5336C67.0155 24.5336 66.7249 24.5235 65.8146 24.4821C64.9064 24.4405 64.2861 24.2967 63.7431 24.0856C63.1823 23.8677 62.7062 23.5754 62.232 23.1007C61.7575 22.6264 61.466 22.1503 61.2478 21.5891C61.037 21.0465 60.8932 20.4264 60.8514 19.5179C60.8101 18.6077 60.7998 18.3178 60.7998 16.0002C60.7998 13.6827 60.8105 13.3917 60.8512 12.4814C60.8921 11.5733 61.0361 10.9531 61.2477 10.4103C61.4663 9.84922 61.7579 9.37313 62.2326 8.89881C62.7069 8.42432 63.183 8.13276 63.7442 7.9148C64.2868 7.70378 64.9069 7.55995 65.8153 7.51835Z" fill="white"/>
  <path fill-rule="evenodd" clip-rule="evenodd" d="M68.569 9.00409C68.7176 9.00385 68.8775 9.00393 69.0501 9.004L69.3345 9.00409C71.6129 9.00409 71.883 9.01226 72.7827 9.05315C73.6147 9.0912 74.0663 9.23022 74.3671 9.34702C74.7653 9.50169 75.0492 9.68658 75.3477 9.98525C75.6464 10.2839 75.8313 10.5684 75.9863 10.9666C76.1031 11.267 76.2423 11.7186 76.2802 12.5506C76.3211 13.4502 76.3299 13.7204 76.3299 15.9978C76.3299 18.2751 76.3211 18.5453 76.2802 19.4449C76.2421 20.2769 76.1031 20.7285 75.9863 21.0289C75.8316 21.4271 75.6464 21.7107 75.3477 22.0092C75.049 22.3079 74.7655 22.4928 74.3671 22.6474C74.0666 22.7648 73.6147 22.9034 72.7827 22.9415C71.8831 22.9824 71.6129 22.9913 69.3345 22.9913C67.0559 22.9913 66.7858 22.9824 65.8863 22.9415C65.0543 22.9031 64.6027 22.7641 64.3017 22.6472C63.9035 22.4926 63.6191 22.3077 63.3204 22.009C63.0217 21.7104 62.8368 21.4266 62.6818 21.0282C62.565 20.7278 62.4258 20.2762 62.3879 19.4442C62.347 18.5446 62.3389 18.2744 62.3389 15.9956C62.3389 13.7168 62.347 13.448 62.3879 12.5485C62.426 11.7165 62.565 11.2649 62.6818 10.9641C62.8365 10.5659 63.0217 10.2814 63.3204 9.98276C63.6191 9.68409 63.9035 9.4992 64.3017 9.34418C64.6025 9.22684 65.0543 9.08818 65.8863 9.04995C66.6735 9.0144 66.9786 9.00373 68.569 9.00195V9.00409ZM73.8892 10.4203C73.3239 10.4203 72.8652 10.8784 72.8652 11.4439C72.8652 12.0093 73.3239 12.4679 73.8892 12.4679C74.4546 12.4679 74.9133 12.0093 74.9133 11.4439C74.9133 10.8786 74.4546 10.4199 73.8892 10.4199V10.4203ZM64.9521 15.9985C64.9521 13.5784 66.9142 11.6163 69.3342 11.6162C71.7544 11.6162 73.716 13.5784 73.716 15.9985C73.716 18.4186 71.7545 20.3799 69.3344 20.3799C66.9143 20.3799 64.9521 18.4186 64.9521 15.9985Z" fill="white"/>
  <path fill-rule="evenodd" clip-rule="evenodd" d="M69.3337 13.1553C70.9046 13.1553 72.1782 14.4287 72.1782 15.9997C72.1782 17.5706 70.9046 18.8442 69.3337 18.8442C67.7627 18.8442 66.4893 17.5706 66.4893 15.9997C66.4893 14.4287 67.7627 13.1553 69.3337 13.1553V13.1553Z" fill="white"/>
  <path fill-rule="evenodd" clip-rule="evenodd" d="M122.667 0C113.83 0 106.667 7.16344 106.667 16C106.667 24.8366 113.83 32 122.667 32C131.504 32 138.667 24.8366 138.667 16C138.667 7.16344 131.504 0 122.667 0ZM122.221 13.5582L122.188 13.0046C122.087 11.5697 122.971 10.259 124.37 9.75059C124.885 9.56981 125.758 9.54721 126.329 9.70539C126.553 9.77318 126.978 9.99916 127.28 10.2025L127.828 10.5754L128.433 10.3833C128.769 10.2816 129.216 10.1121 129.418 9.99916C129.608 9.89747 129.776 9.84097 129.776 9.87487C129.776 10.0669 129.362 10.7223 129.015 11.0838C128.545 11.5923 128.679 11.6375 129.63 11.2985C130.201 11.1064 130.212 11.1064 130.1 11.3211C130.033 11.4341 129.686 11.8295 129.317 12.1911C128.69 12.8125 128.657 12.8803 128.657 13.4001C128.657 14.2023 128.276 15.8745 127.896 16.7897C127.19 18.5071 125.68 20.281 124.169 21.1736C122.042 22.4277 119.211 22.7441 116.827 22.0097C116.032 21.7611 114.667 21.1284 114.667 21.0154C114.667 20.9815 115.081 20.9363 115.585 20.925C116.637 20.9024 117.689 20.6086 118.584 20.0889L119.188 19.7273L118.495 19.4901C117.51 19.1511 116.626 18.3715 116.402 17.6371C116.335 17.3998 116.357 17.3885 116.984 17.3885L117.633 17.3772L117.084 17.1173C116.435 16.7897 115.842 16.236 115.551 15.6711C115.339 15.2643 115.07 14.2362 115.148 14.1571C115.171 14.1232 115.406 14.191 115.674 14.2814C116.446 14.5638 116.547 14.496 116.1 14.0215C115.26 13.1628 115.003 11.886 115.406 10.6771L115.596 10.1347L116.335 10.8692C117.845 12.3493 119.625 13.2306 121.662 13.4905L122.221 13.5582Z" fill="white"/>
  <path fill-rule="evenodd" clip-rule="evenodd" d="M176 0C167.163 0 160 7.16344 160 16C160 24.8366 167.163 32 176 32C184.837 32 192 24.8366 192 16C192 7.16344 184.837 0 176 0ZM182.668 10.5C183.402 10.7015 183.981 11.2953 184.177 12.0493C184.533 13.4158 184.533 16.2671 184.533 16.2671C184.533 16.2671 184.533 19.1183 184.177 20.485C183.981 21.239 183.402 21.8327 182.668 22.0343C181.337 22.4005 176 22.4005 176 22.4005C176 22.4005 170.663 22.4005 169.332 22.0343C168.598 21.8327 168.02 21.239 167.823 20.485C167.467 19.1183 167.467 16.2671 167.467 16.2671C167.467 16.2671 167.467 13.4158 167.823 12.0493C168.02 11.2953 168.598 10.7015 169.332 10.5C170.663 10.1338 176 10.1338 176 10.1338C176 10.1338 181.337 10.1338 182.668 10.5Z" fill="white"/>
  <path fill-rule="evenodd" clip-rule="evenodd" d="M174.4 19.1995V13.8662L178.667 16.533L174.4 19.1995Z" fill="white"/>
</svg>